<?xml version="1.0" encoding="UTF-8" standalone="no"?>
<svg
   xmlns:dc="http://purl.org/dc/elements/1.1/"
   xmlns:cc="http://creativecommons.org/ns#"
   xmlns:rdf="http://www.w3.org/1999/02/22-rdf-syntax-ns#"
   xmlns:svg="http://www.w3.org/2000/svg"
   xmlns="http://www.w3.org/2000/svg"
   xmlns:sodipodi="http://sodipodi.sourceforge.net/DTD/sodipodi-0.dtd"
   xmlns:inkscape="http://www.inkscape.org/namespaces/inkscape"
   width="385.34393mm"
   height="234.77524mm"
   viewBox="0 0 385.34393 234.77524"
   version="1.1"
   id="svg8"
   inkscape:version="1.0.1 (3bc2e813f5, 2020-09-07)"
   sodipodi:docname="drawing.svg">
  <defs
     id="defs2" />
  <sodipodi:namedview
     id="base"
     pagecolor="#ffffff"
     bordercolor="#666666"
     borderopacity="1.0"
     inkscape:pageopacity="0.0"
     inkscape:pageshadow="2"
     inkscape:zoom="0.49497475"
     inkscape:cx="679.95927"
     inkscape:cy="507.48422"
     inkscape:document-units="pc"
     inkscape:current-layer="layer1"
     showgrid="false"
     inkscape:window-width="1474"
     inkscape:window-height="877"
     inkscape:window-x="-8"
     inkscape:window-y="-8"
     inkscape:window-maximized="1"
     inkscape:document-rotation="0"
     fit-margin-top="0"
     fit-margin-left="0"
     fit-margin-right="0"
     fit-margin-bottom="0" />
  <metadata
     id="metadata5">
    <rdf:RDF>
      <cc:Work
         rdf:about="">
        <dc:format>image/svg+xml</dc:format>
        <dc:type
           rdf:resource="http://purl.org/dc/dcmitype/StillImage" />
        <dc:title />
      </cc:Work>
    </rdf:RDF>
  </metadata>
  <g
     inkscape:label="Layer 1"
     inkscape:groupmode="layer"
     id="layer1"
     transform="translate(175.06729,-0.33082446)">
    <rect
       style="opacity:0.957;fill:#015cab;fill-opacity:1;stroke:#015cab;stroke-width:0.173271;stroke-miterlimit:4;stroke-dasharray:none;stroke-opacity:1"
       id="rect3732"
       width="2.7245588"
       height="232.57637"
       x="143.48955"
       y="1.0223204" />
    <rect
       style="opacity:0.957;fill:#015cab;fill-opacity:1;stroke:#015cab;stroke-width:0.258957;stroke-miterlimit:4;stroke-dasharray:none;stroke-opacity:1"
       id="rect3736"
       width="384.93835"
       height="2.3970103"
       x="-174.32997"
       y="190.36787" />
    <g
       aria-label="Amazing web app"
       id="text11"
       style="font-style:normal;font-weight:normal;font-size:10.5833px;line-height:1.25;font-family:sans-serif;letter-spacing:0px;word-spacing:0px;fill:#000000;fill-opacity:1;stroke:none;stroke-width:0.264583"
       transform="matrix(0.92567326,0,0,1.0522688,80.892801,110.72252)">
      <path
         d="m -33.797668,98.686012 h -1.090369 l -0.754474,-2.144565 h -3.327952 l -0.754473,2.144565 h -1.038693 l 2.800854,-7.694596 h 1.364253 z m -2.160068,-3.023061 -1.348751,-3.777536 -1.353918,3.777536 z"
         style="stroke-width:0.264583"
         id="path13" />
      <path
         d="m -24.284067,98.686012 h -0.971514 v -3.28661 q 0,-0.372069 -0.03617,-0.7183 -0.03101,-0.346231 -0.139526,-0.552937 -0.118855,-0.222207 -0.341063,-0.335895 -0.222208,-0.113688 -0.640786,-0.113688 -0.408242,0 -0.816485,0.206705 -0.408242,0.201537 -0.816485,0.516763 0.0155,0.118855 0.02584,0.279052 0.01034,0.155028 0.01034,0.310057 v 3.694853 h -0.971514 v -3.28661 q 0,-0.382405 -0.03617,-0.723468 -0.03101,-0.346231 -0.139526,-0.552936 -0.118855,-0.222208 -0.341063,-0.330728 -0.222208,-0.113688 -0.640786,-0.113688 -0.397907,0 -0.800982,0.19637 -0.397907,0.19637 -0.795814,0.50126 v 4.3098 h -0.971514 v -5.772239 h 0.971514 v 0.640786 q 0.454751,-0.377237 0.904334,-0.58911 0.454752,-0.211872 0.966347,-0.211872 0.589109,0 0.997352,0.248046 0.41341,0.248046 0.614947,0.687294 0.58911,-0.496092 1.074867,-0.713132 0.485756,-0.222208 1.038693,-0.222208 0.950843,0 1.400426,0.578774 0.454752,0.573607 0.454752,1.607132 z"
         style="stroke-width:0.264583"
         id="path15" />
      <path
         d="m -17.927885,98.686012 h -0.966346 v -0.614947 q -0.129191,0.08785 -0.351399,0.248046 -0.21704,0.155029 -0.423745,0.248046 -0.242879,0.118855 -0.558104,0.19637 -0.315225,0.08268 -0.738971,0.08268 -0.780311,0 -1.322912,-0.516763 -0.542601,-0.516763 -0.542601,-1.317745 0,-0.656288 0.279052,-1.059363 0.284219,-0.408243 0.80615,-0.640786 0.527098,-0.232543 1.266068,-0.315225 0.738971,-0.08268 1.586462,-0.124023 v -0.149861 q 0,-0.330729 -0.118856,-0.547769 -0.113688,-0.21704 -0.330728,-0.341063 -0.206705,-0.118856 -0.496092,-0.160197 -0.289387,-0.04134 -0.604612,-0.04134 -0.382405,0 -0.852659,0.103353 -0.470254,0.09819 -0.971514,0.289387 h -0.05168 v -0.987017 q 0.284219,-0.07751 0.821653,-0.170531 0.537433,-0.09302 1.059363,-0.09302 0.60978,0 1.059364,0.103353 0.454751,0.09819 0.785479,0.341063 0.32556,0.237711 0.496092,0.614948 0.170532,0.377236 0.170532,0.93534 z m -0.966346,-1.421097 v -1.607132 q -0.444416,0.02584 -1.049029,0.07751 -0.599444,0.05168 -0.950843,0.149862 -0.418578,0.118855 -0.676959,0.372069 -0.258381,0.248046 -0.258381,0.687294 0,0.496092 0.299722,0.749306 0.299722,0.248046 0.91467,0.248046 0.511595,0 0.93534,-0.19637 0.423746,-0.201537 0.78548,-0.480589 z"
         style="stroke-width:0.264583"
         id="path17" />
      <path
         d="m -11.871427,98.686012 h -4.6612 v -0.7183 l 3.364125,-4.242621 h -3.291778 v -0.811318 h 4.501003 v 0.692462 l -3.379628,4.258125 h 3.467478 z"
         style="stroke-width:0.264583"
         id="path19" />
      <path
         d="M -9.4529788,91.947427 H -10.548516 V 90.93974 h 1.0955372 z m -0.062011,6.738585 h -0.9715142 v -5.772239 h 0.9715142 z"
         style="stroke-width:0.264583"
         id="path21" />
      <path
         d="m -2.7660707,98.686012 h -0.9715138 v -3.28661 q 0,-0.397908 -0.046509,-0.744139 -0.046509,-0.351398 -0.1705317,-0.547768 -0.1291907,-0.21704 -0.3720691,-0.320393 -0.2428785,-0.10852 -0.6304505,-0.10852 -0.3979073,0 -0.8319879,0.19637 -0.4340807,0.19637 -0.8319879,0.50126 v 4.3098 h -0.9715139 v -5.772239 h 0.9715139 v 0.640786 q 0.4547511,-0.377237 0.940508,-0.58911 0.485757,-0.211872 0.997352,-0.211872 0.9353405,0 1.426265,0.563271 0.4909245,0.563271 0.4909245,1.622635 z"
         style="stroke-width:0.264583"
         id="path23" />
      <path
         d="m 3.7864823,98.029724 q 0,1.467606 -0.6666238,2.154896 -0.6666239,0.6873 -2.0515478,0.6873 -0.45991882,0 -0.8991671,-0.0672 -0.43408065,-0.062 -0.85782604,-0.18087 v -0.992182 h 0.0516763 q 0.23771084,0.09302 0.75447351,0.227376 0.51676268,0.139525 1.03352533,0.139525 0.4960922,0 0.8216526,-0.118855 0.3255605,-0.118855 0.5064275,-0.330728 0.1808669,-0.201538 0.2583813,-0.485757 0.077514,-0.284219 0.077514,-0.635618 v -0.527098 q -0.4392483,0.351399 -0.8423232,0.527098 -0.3979072,0.170532 -1.01802239,0.170532 -1.03352535,0 -1.64330531,-0.744139 -0.6046124,-0.749306 -0.6046124,-2.108391 0,-0.744139 0.2067051,-1.281572 0.21187273,-0.542601 0.57360661,-0.93534 0.33589574,-0.366902 0.81648503,-0.568439 0.48058929,-0.206705 0.95601096,-0.206705 0.5012597,0 0.8371555,0.103352 0.3410634,0.09819 0.7183001,0.30489 L 2.87698,92.913773 H 3.7864823 Z M 2.8149685,97.099551 V 93.952466 Q 2.4273965,93.776767 2.0915008,93.70442 1.7607726,93.62691 1.4300445,93.62691 q -0.80098212,0 -1.2609009,0.537433 -0.45991878,0.537433 -0.45991878,1.560623 0,0.971514 0.34106337,1.472774 0.34106336,0.50126 1.13171021,0.50126 0.4237454,0 0.8474908,-0.160197 0.4289131,-0.165364 0.7854793,-0.439248 z"
         style="stroke-width:0.264583"
         id="path25" />
      <path
         d="m 16.679711,92.913773 -1.503779,5.772239 h -0.899168 l -1.483108,-4.449326 -1.472774,4.449326 H 10.426883 L 8.9076003,92.913773 h 1.0128548 l 1.0593639,4.469997 1.441767,-4.469997 h 0.800983 l 1.477941,4.469997 1.002519,-4.469997 z"
         style="stroke-width:0.264583"
         id="path27" />
      <path
         d="m 22.911868,95.900661 h -4.252956 q 0,0.532266 0.160196,0.930173 0.160196,0.39274 0.439248,0.645954 0.268717,0.248046 0.635618,0.372069 0.37207,0.124023 0.816485,0.124023 0.58911,0 1.183387,-0.232543 0.599445,-0.237711 0.852658,-0.465087 h 0.05168 v 1.059364 q -0.490925,0.206705 -1.00252,0.346231 -0.511595,0.139526 -1.074866,0.139526 -1.436601,0 -2.24275,-0.775144 -0.80615,-0.780312 -0.80615,-2.211745 0,-1.415929 0.769976,-2.247917 0.775144,-0.831988 2.036045,-0.831988 1.167884,0 1.798334,0.682126 0.635618,0.682127 0.635618,1.937861 z m -0.945675,-0.744138 q -0.0052,-0.764809 -0.387572,-1.183386 -0.377237,-0.418578 -1.152381,-0.418578 -0.780312,0 -1.245398,0.459919 -0.459919,0.459918 -0.52193,1.142045 z"
         style="stroke-width:0.264583"
         id="path29" />
      <path
         d="m 29.464415,95.755968 q 0,0.723468 -0.206705,1.302242 -0.201537,0.578774 -0.547768,0.971514 -0.366902,0.408242 -0.80615,0.614947 -0.439248,0.201538 -0.966346,0.201538 -0.490925,0 -0.857826,-0.118856 -0.366902,-0.113688 -0.723468,-0.310057 l -0.06201,0.268716 H 24.38464 v -8.040827 h 0.971514 v 2.8732 q 0.408242,-0.335895 0.868161,-0.547768 0.459919,-0.21704 1.033525,-0.21704 1.023191,0 1.6123,0.785479 0.594277,0.785479 0.594277,2.216912 z m -1.00252,0.02584 q 0,-1.033525 -0.341063,-1.565791 -0.341063,-0.537433 -1.100704,-0.537433 -0.423746,0 -0.857826,0.186034 -0.434081,0.180867 -0.80615,0.470255 v 3.307281 q 0.41341,0.186034 0.707965,0.258381 0.299722,0.07235 0.676959,0.07235 0.80615,0 1.260901,-0.527098 0.459918,-0.532266 0.459918,-1.663976 z"
         style="stroke-width:0.264583"
         id="path31" />
      <path
         d="m 39.184728,98.686012 h -0.966346 v -0.614947 q -0.12919,0.08785 -0.351398,0.248046 -0.217041,0.155029 -0.423746,0.248046 -0.242878,0.118855 -0.558103,0.19637 -0.315226,0.08268 -0.738971,0.08268 -0.780312,0 -1.322913,-0.516763 -0.5426,-0.516763 -0.5426,-1.317745 0,-0.656288 0.279051,-1.059363 0.28422,-0.408243 0.80615,-0.640786 0.527098,-0.232543 1.266069,-0.315225 0.73897,-0.08268 1.586461,-0.124023 v -0.149861 q 0,-0.330729 -0.118855,-0.547769 -0.113688,-0.21704 -0.330728,-0.341063 -0.206705,-0.118856 -0.496092,-0.160197 -0.289388,-0.04134 -0.604613,-0.04134 -0.382404,0 -0.852658,0.103353 -0.470254,0.09819 -0.971514,0.289387 h -0.05168 v -0.987017 q 0.284219,-0.07751 0.821652,-0.170531 0.537434,-0.09302 1.059364,-0.09302 0.60978,0 1.059363,0.103353 0.454751,0.09819 0.78548,0.341063 0.32556,0.237711 0.496092,0.614948 0.170531,0.377236 0.170531,0.93534 z m -0.966346,-1.421097 v -1.607132 q -0.444416,0.02584 -1.049028,0.07751 -0.599445,0.05168 -0.950843,0.149862 -0.418578,0.118855 -0.676959,0.372069 -0.258382,0.248046 -0.258382,0.687294 0,0.496092 0.299723,0.749306 0.299722,0.248046 0.91467,0.248046 0.511595,0 0.93534,-0.19637 0.423745,-0.201537 0.785479,-0.480589 z"
         style="stroke-width:0.264583"
         id="path33" />
      <path
         d="m 46.135184,95.73013 q 0,0.702797 -0.201538,1.286739 -0.201537,0.578774 -0.568439,0.981849 -0.341063,0.382404 -0.806149,0.594277 -0.459919,0.206705 -0.976682,0.206705 -0.449583,0 -0.816485,-0.09819 -0.361734,-0.09819 -0.73897,-0.30489 v 2.41845 h -0.971514 v -7.901302 h 0.971514 v 0.604612 q 0.387572,-0.32556 0.868161,-0.5426 0.485757,-0.222208 1.033525,-0.222208 1.043861,0 1.622635,0.790647 0.583942,0.785479 0.583942,2.185906 z m -1.00252,0.02584 q 0,-1.043861 -0.356566,-1.560623 -0.356566,-0.516763 -1.095537,-0.516763 -0.418578,0 -0.842323,0.180867 -0.423745,0.180867 -0.811317,0.475422 v 3.271107 q 0.41341,0.186035 0.707964,0.253214 0.299723,0.06718 0.67696,0.06718 0.811317,0 1.266068,-0.547768 0.454751,-0.547769 0.454751,-1.622636 z"
         style="stroke-width:0.264583"
         id="path35" />
      <path
         d="m 52.729071,95.73013 q 0,0.702797 -0.201537,1.286739 -0.201538,0.578774 -0.568439,0.981849 -0.341064,0.382404 -0.80615,0.594277 -0.459919,0.206705 -0.976681,0.206705 -0.449584,0 -0.816486,-0.09819 -0.361733,-0.09819 -0.73897,-0.30489 v 2.41845 h -0.971514 v -7.901302 h 0.971514 v 0.604612 q 0.387572,-0.32556 0.868161,-0.5426 0.485757,-0.222208 1.033526,-0.222208 1.04386,0 1.622634,0.790647 0.583942,0.785479 0.583942,2.185906 z m -1.002519,0.02584 q 0,-1.043861 -0.356567,-1.560623 -0.356566,-0.516763 -1.095537,-0.516763 -0.418577,0 -0.842323,0.180867 -0.423745,0.180867 -0.811317,0.475422 v 3.271107 q 0.41341,0.186035 0.707965,0.253214 0.299722,0.06718 0.676959,0.06718 0.811317,0 1.266068,-0.547768 0.454752,-0.547769 0.454752,-1.622636 z"
         style="stroke-width:0.264583"
         id="path37" />
    </g>
  </g>
</svg>
